<svg xmlns="http://www.w3.org/2000/svg" viewBox="0 0 512 496.84"><defs><style>.cls-1{fill:#687389;}</style></defs><title>Recurso 3</title><g id="Capa_2" data-name="Capa 2"><g id="Layer_1" data-name="Layer 1"><path class="cls-1" d="M483.38,257.76H483V106.39A11.41,11.41,0,0,0,471.6,95H411.55L366.67,6.26a11.41,11.41,0,0,0-15.33-5L166,95H46.19A46,46,0,0,0,0,139.37v.2c0,.53,0,1.07,0,1.61V450.65a46.24,46.24,0,0,0,46.19,46.19H471.6A11.41,11.41,0,0,0,483,485.43V397.58h.37A28.65,28.65,0,0,0,512,369V286.38A28.65,28.65,0,0,0,483.38,257.76Zm-23.18-140V162H445.45L423.08,117.8Zm-286.37-1.23h0L351.46,26.73l42.89,84.8h0L419.89,162H397.78a9,9,0,0,0-.5-1.16l-29.35-58a11.42,11.42,0,0,0-12.33-6.06l-3.49.67a33,33,0,0,1-34.23-15.11l-2.28-3.71a11.4,11.4,0,0,0-14.87-4.21L127.49,162H84ZM372.31,162H178L302,99.35a56.07,56.07,0,0,0,49.38,21.22ZM46.19,117.8h74.68L37.08,160.18a23.61,23.61,0,0,1-13.33-15l-.06-.19c-.12-.44-.23-.89-.33-1.34s-.15-.78-.22-1.18-.1-.62-.14-.94c-.06-.55-.11-1.1-.14-1.66A23.28,23.28,0,0,1,46.19,117.8ZM460.2,474h-414a23.41,23.41,0,0,1-23.38-23.38v-5.31H371.3a11.41,11.41,0,1,0,0-22.81H22.81v-244a45.59,45.59,0,0,0,15,5.51l.09,0h0l.32,0h0l.26,0c.68.11,1.35.21,2,.29l.4.05h0l1,.09c.47,0,.93.1,1.41.12l.35,0c.89,0,1.73.07,2.55.07h414V210H108.67a11.41,11.41,0,1,0,0,22.81H460.2v25h-165a11.4,11.4,0,0,0-11.41,11.4v117a11.41,11.41,0,0,0,11.41,11.4h165Zm23.18-99.26H306.62v-94.2H483.38a5.81,5.81,0,0,1,5.81,5.81V369h0A5.81,5.81,0,0,1,483.38,374.77Z"/><path class="cls-1" d="M363.28,284.61a43.06,43.06,0,1,0,43.06,43.06A43.11,43.11,0,0,0,363.28,284.61Zm0,63.31a20.25,20.25,0,1,1,20.24-20.25A20.27,20.27,0,0,1,363.28,347.92Z"/><path class="cls-1" d="M417.16,431.71a11.16,11.16,0,0,0-.65-2.13,11,11,0,0,0-1.05-2,11.71,11.71,0,0,0-1.41-1.73,11.48,11.48,0,0,0-10.3-3.11,9.89,9.89,0,0,0-2.13.65,11.28,11.28,0,0,0-2,1,12.33,12.33,0,0,0-1.74,1.41,11.21,11.21,0,0,0-1.41,1.73,11,11,0,0,0-1.05,2,11.31,11.31,0,0,0-.87,4.35,11.34,11.34,0,0,0,.22,2.24,11.86,11.86,0,0,0,.65,2.13,10.84,10.84,0,0,0,1.05,2,11.29,11.29,0,0,0,1.41,1.74,13.15,13.15,0,0,0,1.74,1.42,11.28,11.28,0,0,0,2,1.05,11.34,11.34,0,0,0,8.72,0,11.28,11.28,0,0,0,2-1.05,12.54,12.54,0,0,0,1.74-1.42,11.29,11.29,0,0,0,1.41-1.74,10.84,10.84,0,0,0,1.05-2,11.61,11.61,0,0,0,.65-2.13,11.35,11.35,0,0,0,.23-2.24A11.08,11.08,0,0,0,417.16,431.71Z"/><path class="cls-1" d="M85.18,219.18a11.92,11.92,0,0,0-.65-2.13,12.51,12.51,0,0,0-1-2,11.84,11.84,0,0,0-1.43-1.73,10.16,10.16,0,0,0-1.73-1.41,10.65,10.65,0,0,0-2-1.05,10.89,10.89,0,0,0-2.13-.65,11.16,11.16,0,0,0-4.46,0,10.49,10.49,0,0,0-2.13.65,10.61,10.61,0,0,0-2,1.05,10.73,10.73,0,0,0-1.74,1.41,11.41,11.41,0,0,0-2.46,3.71,11.34,11.34,0,0,0,0,8.72,11.28,11.28,0,0,0,1.05,2,11.71,11.71,0,0,0,1.41,1.73,11.35,11.35,0,0,0,1.74,1.42,10.61,10.61,0,0,0,2,1.05,11.13,11.13,0,0,0,6.59.65,11.61,11.61,0,0,0,2.13-.65,11.33,11.33,0,0,0,3.7-2.47,11.15,11.15,0,0,0,2.48-3.7,11.92,11.92,0,0,0,.65-2.13,12.05,12.05,0,0,0,.21-2.24A11.92,11.92,0,0,0,85.18,219.18Z"/></g></g></svg>