<svg xmlns="http://www.w3.org/2000/svg" viewBox="0 0 480.23 480.01"><defs><style>.cls-1{fill:#3e4452;}</style></defs><title>i-8</title><g id="Capa_2" data-name="Capa 2"><g id="Capa_1-2" data-name="Capa 1"><g id="Layer_1" data-name="Layer 1"><path class="cls-1" d="M224.07,432h32v16h-32Z"/><path class="cls-1" d="M224.07,200h32v16h-32Z"/><path class="cls-1" d="M456.07,120h-8V104h-16v16h-22.4c-19.2-27.2-44.8-48.8-73.6-64.8V24A23.57,23.57,0,0,0,312.94,0H168.07a23.57,23.57,0,0,0-24,23.14c0,.29,0,.57,0,.86V55.2a209.35,209.35,0,0,0-84,80.8c-35.2,2.4-61.6,32.8-60,68a65.46,65.46,0,0,0,32.8,52,218.09,218.09,0,0,0,12,56A47.55,47.55,0,0,0,31.76,378l.31.45c1.6,2.4,4,4.8,5.6,7.2L72.07,420l26.4-26.4a203.06,203.06,0,0,0,45.6,32V456a23.57,23.57,0,0,0,23.13,24H312.07a23.57,23.57,0,0,0,24-23.13V424.8c12-6.4,22.4-12.8,32.8-21.6,24,26.4,64,28,90.4,4s28-64,4-90.4c-6.4-7.2-15.2-12.8-24-16.8a228.07,228.07,0,0,0,8.8-52h8a23.57,23.57,0,0,0,24-23.13V144a23.57,23.57,0,0,0-23.13-24Zm8,24v8h-96v-8a7.56,7.56,0,0,1,7.09-8h80.91a7.56,7.56,0,0,1,8,7.1A6.76,6.76,0,0,1,464.07,144Zm-304-120a7.56,7.56,0,0,1,7.09-8H312.07a7.56,7.56,0,0,1,8,7.1,6.76,6.76,0,0,1,0,.9v80a7.56,7.56,0,0,1-7.09,8,6.91,6.91,0,0,1-.91,0h-51.2l-20.8,20.8L219.27,112h-51.2a7.55,7.55,0,0,1-8-7.09,6.91,6.91,0,0,1,0-.91Zm-144,176a48,48,0,1,1,48,48A48,48,0,0,1,16.07,200Zm56,196.8-22.4-22.4c-12-12-12-32,0-44.8a32.09,32.09,0,0,1,22.4-9.6h.8a31.25,31.25,0,0,1,31.2,31.2c0,8-3.2,16.8-9.6,22.4Zm248,3.2h-160V192a7.56,7.56,0,0,1,7.09-8H312.07a7.56,7.56,0,0,1,8,7.1,6.76,6.76,0,0,1,0,.9Zm-8,64h-144a7.55,7.55,0,0,1-8-7.09,6.91,6.91,0,0,1,0-.91V416h160v40a7.56,7.56,0,0,1-7.09,8A6.91,6.91,0,0,1,312.07,464Zm152-104a48,48,0,1,1-48-48A48,48,0,0,1,464.07,360Zm-40.8-63.2c-35.2-4-67.2,20.8-71.2,56a61.35,61.35,0,0,0,7.2,37.6,237.64,237.64,0,0,1-23.2,16V192a23.57,23.57,0,0,0-23.13-24H168.07a23.57,23.57,0,0,0-24,23.14c0,.29,0,.57,0,.86V406.4a212.76,212.76,0,0,1-34.4-25.6c16-20.8,12.8-50.4-8-66.4A47.6,47.6,0,0,0,72.07,304h-.8a62.27,62.27,0,0,0-12,1.6c-4.8-13.6-8.8-28.8-10.4-43.2a64,64,0,1,0,28.8-124.8h-.8a195.57,195.57,0,0,1,66.4-64V104a23.57,23.57,0,0,0,23.13,24h45.67l27.2,27.2,27.2-27.2h45.6a23.57,23.57,0,0,0,24-23.13V73.6a187.49,187.49,0,0,1,53.6,46.4h-13.6a23.57,23.57,0,0,0-24,23.14c0,.29,0,.57,0,.86v80a23.57,23.57,0,0,0,23.13,24h56.87A201.86,201.86,0,0,1,423.27,296.8Zm32.8-64.8h-80a7.55,7.55,0,0,1-8-7.09,6.91,6.91,0,0,1,0-.91V168h96v56a7.56,7.56,0,0,1-7.09,8,6.91,6.91,0,0,1-.91,0Z"/><path class="cls-1" d="M92.87,209.6,72.07,196V168h-16v36l27.2,18.4Z"/><path class="cls-1" d="M392.07,184h16v32h-16Z"/><path class="cls-1" d="M424.07,184h16v32h-16Z"/><path class="cls-1" d="M40.07,432h64v16h-64Z"/><path class="cls-1" d="M208.07,40h96V56h-96Z"/><path class="cls-1" d="M208.07,80h96V96h-96Z"/><path class="cls-1" d="M408.07,328h16v32h-16Z"/><path class="cls-1" d="M408.07,376h16v16h-16Z"/><path class="cls-1" d="M176.07,40h16V56h-16Z"/><path class="cls-1" d="M176.07,80h16V96h-16Z"/></g></g></g></svg>