<svg xmlns="http://www.w3.org/2000/svg" viewBox="0 0 512 397"><defs><style>.cls-1{fill:#f55d2c;}</style></defs><title>Recurso 1</title><g id="Capa_2" data-name="Capa 2"><g id="Layer_1" data-name="Layer 1"><path class="cls-1" d="M488.5,350H472V323.79a62.5,62.5,0,1,0-58.5-109.4V171.73l.8.62a22.51,22.51,0,0,0,27.4-35.71L381.17,90.19a7.5,7.5,0,0,0-9.14,11.9l60.53,46.45A7.5,7.5,0,0,1,428,162a7.4,7.4,0,0,1-4.56-1.56l-162.86-125a7.5,7.5,0,0,0-9.14,0l-162.86,125a7.5,7.5,0,1,1-9.14-11.9l172-132a7.53,7.53,0,0,1,9.14,0l86.08,66.07a7.5,7.5,0,1,0,9.14-11.9L269.7,4.64a22.54,22.54,0,0,0-27.4,0l-172,132a22.5,22.5,0,0,0,27.4,35.7l.8-.61v42.66A62.5,62.5,0,1,0,40,323.79V350H23.5a23.5,23.5,0,0,0,0,47H415.87a7.5,7.5,0,0,0,0-15H23.5a8.5,8.5,0,0,1,0-17h465a8.5,8.5,0,0,1,0,17H448.28a7.5,7.5,0,0,0,0,15H488.5a23.5,23.5,0,0,0,0-47Zm-39-132a47.5,47.5,0,1,1-36,78.48v-62a47.18,47.18,0,0,1,36-16.52Zm-36,98.61a62,62,0,0,0,13.5,7.22V350H413.5Zm-315,0V350H85V323.83a62,62,0,0,0,13.5-7.22ZM15,265.5a47.5,47.5,0,0,1,83.5-31v62a47.5,47.5,0,0,1-83.5-31ZM55,350V327.53a61.89,61.89,0,0,0,7.5.47,64.26,64.26,0,0,0,7.5-.45V350Zm191.5,0V213.5A7.5,7.5,0,0,0,239,206H149a7.5,7.5,0,0,0-7.5,7.5v88.77a7.5,7.5,0,0,0,15,0V221h75V350h-75V334.47a7.5,7.5,0,0,0-15,0V350h-28V160.22L256,50.85,398.5,160.22V350ZM442,350V327.55a64.26,64.26,0,0,0,7.5.45,61.89,61.89,0,0,0,7.5-.47V350Z"/><path class="cls-1" d="M370.5,266.11V213.5A7.5,7.5,0,0,0,363,206H275a7.5,7.5,0,0,0-7.5,7.5v52.61a11.51,11.51,0,0,0-10,11.39v22A11.51,11.51,0,0,0,269,311H369a11.51,11.51,0,0,0,11.5-11.5v-22A11.51,11.51,0,0,0,370.5,266.11Zm-15-.11h-29V221h29Zm-73-45h29v45h-29Zm83,75h-93V281h93Z"/><path class="cls-1" d="M298.5,131a42.5,42.5,0,1,0-42.5,42.5A42.55,42.55,0,0,0,298.5,131Zm-15.92-7H263.5V104.58A27.59,27.59,0,0,1,282.58,124ZM248.5,104.58V124H229.42A27.59,27.59,0,0,1,248.5,104.58ZM229.68,139H248.5v18.5A27.61,27.61,0,0,1,229.68,139Zm33.82,18.5V139h18.82A27.61,27.61,0,0,1,263.5,157.49Z"/></g></g></svg>