<?xml version="1.0" encoding="utf-8"?>
<!-- Generator: Adobe Illustrator 23.0.3, SVG Export Plug-In . SVG Version: 6.00 Build 0)  -->
<svg version="1.1" id="Capa_1" xmlns="http://www.w3.org/2000/svg" xmlns:xlink="http://www.w3.org/1999/xlink" x="0px" y="0px"
	 viewBox="0 0 1496 338" style="enable-background:new 0 0 1496 338;" xml:space="preserve">
<style type="text/css">
	.st0{fill:#FFFFFF;}
	.st1{fill:none;}
	.st2{fill:#CC9D6E;}
	.st3{font-family:'OpenSans-ExtraBold';}
	.st4{font-size:261px;}
</style>
<g>
	<path class="st0" d="M459.5,123.7L305.6,12.2c-4.1-3-9.8-3-13.8,0l-25.2,18.4l-25.4-18.4c-4.1-3-9.8-3-13.8,0L202.7,30l-24.6-17.8
		c-4.1-3-9.8-3-13.8,0L10.2,123.7c-2.8,2.1-4.5,5.3-4.5,8.8V320c0,6.2,5.2,11,11.4,11h435.6c6.5,0,11.4-4.8,11.4-11V132.5
		C464.1,129,462.4,125.7,459.5,123.7z M441.1,308.8h-41.6V132.3c0-3.5-1.7-6.8-4.5-8.8L285.6,44.2l13-9.4l142.5,103V308.8z
		 M336.5,308.8V132.3c0-3.5-1.7-6.8-4.5-8.8L221.8,44l12.5-8.9l142.3,103V309L336.5,308.8L336.5,308.8z M189.9,308.8h-37.6v-80.1
		h37.6V308.8z M212.9,308.8v-91.1c0-6.2-5.2-11-11.4-11h-60.8c-6.5,0-11.4,4.8-11.4,11v91.1H28.7V138L171.2,35l142.5,103v170.9
		L212.9,308.8L212.9,308.8z"/>
	<rect x="546" y="64.6" class="st1" width="905" height="245.4"/>
	<text transform="matrix(0.5597 0 0 1 546 288.2686)" class="st2 st3 st4">Find Houses</text>
</g>
</svg>
