<?xml version="1.0" encoding="utf-8"?>
<!-- Generator: Adobe Illustrator 23.0.3, SVG Export Plug-In . SVG Version: 6.00 Build 0)  -->
<svg version="1.1" id="Capa_1" xmlns="http://www.w3.org/2000/svg" xmlns:xlink="http://www.w3.org/1999/xlink" x="0px" y="0px"
	 viewBox="0 0 461 419" style="enable-background:new 0 0 461 419;" xml:space="preserve">
<style type="text/css">
	.st0{fill:#FFFFFF;}
	.st1{font-family:'OpenSans-Semibold';}
	.st2{font-size:81px;}
</style>
<g>
	<path class="st0" d="M456.5,117.7L302.6,6.2c-4.1-3-9.8-3-13.8,0l-25.2,18.4L238.2,6.2c-4.1-3-9.8-3-13.8,0L199.7,24L175.1,6.2
		c-4.1-3-9.8-3-13.8,0L7.2,117.7c-2.8,2.1-4.5,5.3-4.5,8.8V314c0,6.2,5.2,11,11.4,11h435.6c6.5,0,11.4-4.8,11.4-11V126.5
		C461.1,123,459.4,119.7,456.5,117.7z M438.1,302.8h-41.6V126.3c0-3.5-1.7-6.8-4.5-8.8L282.6,38.2l13-9.4l142.5,103V302.8z
		 M333.5,302.8V126.3c0-3.5-1.7-6.8-4.5-8.8L218.8,38l12.5-8.9l142.3,103V303L333.5,302.8L333.5,302.8z M186.9,302.8h-37.6v-80.1
		h37.6V302.8z M209.9,302.8v-91.1c0-6.2-5.2-11-11.4-11h-60.8c-6.5,0-11.4,4.8-11.4,11v91.1H25.7V132L168.2,29l142.5,103v170.9
		L209.9,302.8L209.9,302.8z"/>
	<text transform="matrix(0.9045 0 0 1 2.2432 405.8926)" class="st0 st1 st2">Find Houses</text>
</g>
</svg>
