<svg xmlns="http://www.w3.org/2000/svg" viewBox="0 0 511.98 511.95"><defs><style>.cls-1{fill:#3e4452;}</style></defs><title>i-6</title><g id="Capa_2" data-name="Capa 2"><g id="Capa_1-2" data-name="Capa 1"><g id="Layer_1" data-name="Layer 1"><path class="cls-1" d="M136.41,235.43a16.88,16.88,0,0,0,5,12.06l6,6a42.69,42.69,0,0,0,60.34,0L250.29,211a93.11,93.11,0,0,0,60,21.72h0a93.56,93.56,0,0,0,66.44-27.57,8.53,8.53,0,1,0-12.07-12.07,76.54,76.54,0,0,1-54.38,22.57h0A76.29,76.29,0,0,1,256,193.18a8.54,8.54,0,0,0-12.07,0l-48.28,48.27c-9.66,9.67-26.53,9.67-36.2,0l-6-6,102.61-102.6c9.57-9.57,18.65-9.57,30.17-9.57,12.32,0,27.67,0,42.24-14.56L352.6,84.58a8.53,8.53,0,1,0-12.07-12.07L316.4,96.65c-9.57,9.57-18.66,9.57-30.18,9.57-12.32,0-27.66,0-42.23,14.56L141.42,223.35A16.94,16.94,0,0,0,136.41,235.43Z"/><path class="cls-1" d="M76.78,93.88A17.07,17.07,0,1,0,59.72,76.8h0A17.09,17.09,0,0,0,76.78,93.88Z"/><path class="cls-1" d="M159.51,120.78l24.14,24.14a8.53,8.53,0,0,0,12.06-12.07l-24.13-24.13a8.53,8.53,0,1,0-12.07,12.06Z"/><path class="cls-1" d="M435.18,59.74a17.07,17.07,0,1,0-17.06-17.08v0A17.09,17.09,0,0,0,435.18,59.74Z"/><path class="cls-1" d="M454.75,181.71c-13.87,13.87-18.63,36.46-23.23,58.3-4.08,19.39-8.3,39.45-18.58,49.73L400.87,301.8A8.55,8.55,0,1,0,413,313.87l12-12.07c13.86-13.86,18.61-36.43,23.21-58.27,4.09-19.41,8.32-39.47,18.59-49.75a8.53,8.53,0,0,0-12.06-12.07h0Z"/><path class="cls-1" d="M509.48,181.71l-139-139,28.1-28.1a8.56,8.56,0,0,0-12.1-12.1L352.35,36.64a8.51,8.51,0,0,0,0,12l0,0L497.42,193.78a8.53,8.53,0,0,0,12.06-12.07Z"/><path class="cls-1" d="M316.4,253.53a8.53,8.53,0,0,0-12.07,12.07l90.51,90.51a17.07,17.07,0,0,1-24.14,24.14l-90.51-90.51a8.53,8.53,0,1,0-12.07,12.06L382.77,416.45a17.07,17.07,0,0,1-24.14,24.14L250,332a8.53,8.53,0,1,0-13,11,8,8,0,0,0,1,1l96.54,96.54a17.1,17.1,0,0,1,0,24.14,17.46,17.46,0,0,1-24.13,0l-12.08-12.06h0L219.88,374.2a8.53,8.53,0,0,0-12.06,12.06l78.43,78.44a17.06,17.06,0,0,1-24.13,24.13h0L117,343.85c-22.13-22.13-26.93-50-31.17-74.65-3.57-20.71-6.94-40.26-20-53.35a8.55,8.55,0,1,0-12.13,12.06c9.26,9.26,12,25.45,15.28,44.19,4.43,25.78,10,57.85,35.92,83.81L250,500.91a34.15,34.15,0,0,0,57.62-17.5,34.86,34.86,0,0,0,38.91-6.64,34,34,0,0,0,9.36-17.51,34.13,34.13,0,0,0,38.92-54.9l-3.24-3.24A34.13,34.13,0,0,0,406.91,344Z"/><path class="cls-1" d="M159.61,70.78l-51.2-51.2A8.53,8.53,0,0,0,96.35,31.64l45.17,45.17-139,139a8.53,8.53,0,1,0,12,12.1h0L159.61,82.85a8.53,8.53,0,0,0,0-12Z"/><path class="cls-1" d="M209.86,493.37c-4.75,2.49-12.87,2.79-20.18-4.51s-7.26-15.83-4.88-19.53a8.53,8.53,0,0,0-13.22-10.64,17.07,17.07,0,0,1-24.14-24.14,8.53,8.53,0,1,0-12.07-12.07h0l-6,6a17.06,17.06,0,0,1-24.13-24.13h0l6-6A8.54,8.54,0,0,0,101,384.92c-4.64,2.68-12.81,2.37-19.86-4.67-7.49-7.49-7.45-15.8-5-19.3a8.53,8.53,0,0,0-13.39-10.57,6.58,6.58,0,0,0-.61.88c-6.91,10-6.72,27.32,7,41.05a38,38,0,0,0,17.1,10.18,34.15,34.15,0,0,0,39.41,47.08,34.1,34.1,0,0,0,36.89,31.05,36.24,36.24,0,0,0,4.14-.61,37.55,37.55,0,0,0,11,20.94c7.89,7.88,17.11,11,25.52,11a32,32,0,0,0,14.65-3.49,8.53,8.53,0,0,0-7.92-15.11Z"/></g></g></g></svg>