<svg xmlns="http://www.w3.org/2000/svg" viewBox="0 0 458.86 423.89"><defs><style>.cls-1{fill:#ff385c;}.cls-2{isolation:isolate;font-size:81px;font-family:OpenSans, Open Sans;}</style></defs><title>logo-red</title><g id="Capa_2" data-name="Capa 2"><g id="Capa_1-2" data-name="Capa 1"><path class="cls-1" d="M454.26,113.75,300.36,2.25a11.7,11.7,0,0,0-13.8,0l-25.2,18.4L236,2.25a11.7,11.7,0,0,0-13.8,0l-24.7,17.8-24.6-17.8a11.7,11.7,0,0,0-13.8,0L5,113.75a11,11,0,0,0-4.5,8.8v187.5a11.19,11.19,0,0,0,11.4,11h435.6c6.5,0,11.4-4.8,11.4-11V122.55A10.68,10.68,0,0,0,454.26,113.75Zm-18.4,185.1h-41.6V122.35a10.85,10.85,0,0,0-4.5-8.8l-109.4-79.3,13-9.4,142.5,103Zm-104.6,0V122.35a10.85,10.85,0,0,0-4.5-8.8l-110.2-79.5,12.5-8.9,142.3,103v170.9l-40.1-.2Zm-146.6,0h-37.6v-80.1h37.6Zm23,0v-91.1a11.19,11.19,0,0,0-11.4-11h-60.8c-6.5,0-11.4,4.8-11.4,11v91.1H23.46V128.05L166,25.05l142.5,103V299l-100.8-.1Z"/><text class="cls-2" transform="translate(0 401.94) scale(0.9 1)">Find Houses</text></g></g></svg>