<?xml version="1.0" encoding="utf-8"?>
<!-- Generator: Adobe Illustrator 23.0.3, SVG Export Plug-In . SVG Version: 6.00 Build 0)  -->
<svg version="1.1" id="Capa_1" xmlns="http://www.w3.org/2000/svg" xmlns:xlink="http://www.w3.org/1999/xlink" x="0px" y="0px"
	 viewBox="0 0 1445.3 354.8" style="enable-background:new 0 0 1445.3 354.8;" xml:space="preserve">
<style type="text/css">
	.st0{fill:#FFFFFF;}
	.st1{fill:none;}
	.st2{font-family:'OpenSans-Extrabold';}
	.st3{font-size:261px;}
</style>
<g>
	<path class="st0" d="M453.8,113.8L299.9,2.3c-4.1-3-9.7-3-13.8,0l-25.2,18.4L235.5,2.3c-4.1-3-9.7-3-13.8,0L197,20L172.4,2.3
		c-4.1-3-9.7-3-13.8,0L4.5,113.8c-2.8,2.1-4.5,5.3-4.5,8.8V310c0.1,6.2,5.2,11.1,11.4,11c0,0,0,0,0,0H447c6.5,0,11.4-4.8,11.4-11
		V122.6C458.4,119,456.7,115.7,453.8,113.8z M435.4,298.9h-41.6V122.3c0-3.5-1.7-6.8-4.5-8.8L279.9,34.3l13-9.4l142.5,103V298.9z
		 M330.8,298.9V122.3c0-3.5-1.7-6.8-4.5-8.8L216.1,34l12.5-8.9l142.3,103V299L330.8,298.9L330.8,298.9z M184.2,298.9h-37.6v-80.1
		h37.6L184.2,298.9z M207.2,298.9v-91.1c-0.1-6.2-5.2-11.1-11.4-11c0,0,0,0,0,0H135c-6.5,0-11.4,4.8-11.4,11v91.1H23V128.1
		l142.5-103l142.5,103V299L207.2,298.9L207.2,298.9z"/>
	<rect x="540.3" y="54.7" class="st1" width="905" height="245.4"/>
	<text transform="matrix(0.56 0 0 1 540.2998 278.3198)" class="st0 st2 st3">FindHouses</text>
</g>
</svg>
