<svg xmlns="http://www.w3.org/2000/svg" viewBox="0 0 1445.3 354.78"><defs><style>.cls-1{fill:#fff;}.cls-2{fill:none;}.cls-3{isolation:isolate;font-size:261px;fill:#f5b200;font-family:OpenSans-Extrabold, Open Sans;font-weight:800;}</style></defs><title>Recurso 1</title><g id="Capa_2" data-name="Capa 2"><g id="Capa_1-2" data-name="Capa 1"><path class="cls-1" d="M453.8,113.75,299.9,2.25a11.7,11.7,0,0,0-13.8,0l-25.2,18.4L235.5,2.25a11.7,11.7,0,0,0-13.8,0L197,20.05,172.4,2.25a11.7,11.7,0,0,0-13.8,0L4.5,113.75a11,11,0,0,0-4.5,8.8v187.5a11.19,11.19,0,0,0,11.4,11H447c6.5,0,11.4-4.8,11.4-11V122.55A10.68,10.68,0,0,0,453.8,113.75Zm-18.4,185.1H393.8V122.35a10.85,10.85,0,0,0-4.5-8.8L279.9,34.25l13-9.4,142.5,103Zm-104.6,0V122.35a10.85,10.85,0,0,0-4.5-8.8L216.1,34.05l12.5-8.9,142.3,103v170.9l-40.1-.2Zm-146.6,0H146.6v-80.1h37.6Zm23,0v-91.1a11.19,11.19,0,0,0-11.4-11H135c-6.5,0-11.4,4.8-11.4,11v91.1H23V128.05l142.5-103,142.5,103V299l-100.8-.1Z"/><rect class="cls-2" x="540.3" y="54.65" width="905" height="245.4"/><text class="cls-3" transform="translate(540.3 278.32) scale(0.56 1)">Find Houses</text></g></g></svg>