<?xml version="1.0" encoding="utf-8"?>
<!-- Generator: Adobe Illustrator 23.0.3, SVG Export Plug-In . SVG Version: 6.00 Build 0)  -->
<svg version="1.1" id="Capa_1" xmlns="http://www.w3.org/2000/svg" xmlns:xlink="http://www.w3.org/1999/xlink" x="0px" y="0px"
	 viewBox="0 0 895 203.7" style="enable-background:new 0 0 895 203.7;" xml:space="preserve">
<style type="text/css">
	.st0{fill:#FFFFFF;}
	.st1{font-family:'OpenSans-ExtraBold';}
	.st2{font-size:93px;}
</style>
<g>
	<path class="st0" d="M276.3,72.1L182.6,1.4c-2.5-1.9-5.9-1.9-8.4,0L158.8,13L143.4,1.4c-2.5-1.9-5.9-1.9-8.4,0l-15,11.3L105,1.4
		c-2.5-1.9-5.9-1.9-8.4,0L2.8,72.1C1,73.4,0,75.5,0,77.7v119c0,3.9,3.1,7,7,7h265.1c3.9,0,7-3.1,7-7v-119
		C279.1,75.5,278.1,73.4,276.3,72.1z M265.1,189.6h-25.3v-112c0-2.2-1-4.3-2.8-5.6l-66.6-50.3l8-6l86.7,65.4L265.1,189.6
		L265.1,189.6z M201.4,189.6v-112c0-2.2-1-4.3-2.8-5.6l-67.1-50.5l7.6-5.7l86.7,65.4v108.5h-24.4L201.4,189.6L201.4,189.6z
		 M112.2,189.6h-23v-50.8h22.9L112.2,189.6z M126.2,189.6v-57.8c0-3.9-3.1-7-7-7h-37c-3.9,0-7,3.1-7,7v57.8H14V81.2l86.7-65.4
		l86.7,65.4v108.5L126.2,189.6L126.2,189.6z"/>
	<text transform="matrix(1 0 0 1 305.6378 170.26)" class="st0 st1 st2">Find Houses</text>
</g>
</svg>
