<svg xmlns="http://www.w3.org/2000/svg" viewBox="0 0 512 511.96"><defs><style>.cls-1{fill:#687389;}</style></defs><title>Recurso 3</title><g id="Capa_2" data-name="Capa 2"><g id="Layer_1" data-name="Layer 1"><path class="cls-1" d="M136.43,235.42a16.93,16.93,0,0,0,5,12.06l6,6a42.68,42.68,0,0,0,60.34,0L250.31,211a93.13,93.13,0,0,0,60,21.72h0a93.49,93.49,0,0,0,66.44-27.57,8.53,8.53,0,0,0-12.07-12.07,76.49,76.49,0,0,1-54.38,22.57h0a76.26,76.26,0,0,1-54.28-22.48,8.54,8.54,0,0,0-12.07,0l-48.28,48.27c-9.66,9.67-26.53,9.67-36.2,0l-6-6L256.08,132.84c9.57-9.57,18.65-9.57,30.17-9.57,12.32,0,27.67,0,42.24-14.56l24.13-24.14A8.53,8.53,0,1,0,340.55,72.5L316.42,96.64c-9.57,9.57-18.66,9.57-30.18,9.57-12.32,0-27.66,0-42.23,14.56L141.44,223.34A17,17,0,0,0,136.43,235.42Z"/><path class="cls-1" d="M76.8,93.87A17.07,17.07,0,1,0,59.74,76.8,17.09,17.09,0,0,0,76.8,93.87Z"/><path class="cls-1" d="M159.53,120.77l24.14,24.14a8.53,8.53,0,1,0,12.06-12.07L171.6,108.71a8.53,8.53,0,0,0-12.07,12.06Z"/><path class="cls-1" d="M435.2,59.73a17.07,17.07,0,1,0-17.06-17.06A17.08,17.08,0,0,0,435.2,59.73Z"/><path class="cls-1" d="M454.77,181.7c-13.87,13.87-18.63,36.46-23.23,58.3-4.08,19.39-8.3,39.45-18.58,49.73l-12.07,12.06A8.53,8.53,0,1,0,413,313.86L425,301.79c13.86-13.86,18.61-36.43,23.21-58.27,4.09-19.41,8.32-39.47,18.59-49.75a8.53,8.53,0,0,0-12.06-12.07Z"/><path class="cls-1" d="M509.5,181.7l-139-139,28.1-28.1A8.53,8.53,0,0,0,386.5,2.5L352.37,36.63a8.52,8.52,0,0,0,0,12.07L497.44,193.77A8.53,8.53,0,1,0,509.5,181.7Z"/><path class="cls-1" d="M316.42,253.52a8.53,8.53,0,1,0-12.07,12.07l90.51,90.51a17.07,17.07,0,0,1-24.14,24.14l-90.51-90.51a8.53,8.53,0,1,0-12.07,12.06L382.79,416.44a17.07,17.07,0,0,1-24.14,24.14L250.05,332A8.53,8.53,0,1,0,238,344l96.54,96.54a17.1,17.1,0,0,1,0,24.14,17.45,17.45,0,0,1-24.13,0l-12.08-12.06h0l-78.43-78.43a8.53,8.53,0,0,0-12.06,12.06l78.43,78.44a17.06,17.06,0,1,1-24.13,24.13L117,343.84c-22.13-22.13-26.93-50-31.17-74.65-3.57-20.71-6.94-40.26-20-53.35A8.53,8.53,0,0,0,53.7,227.9c9.26,9.26,12,25.45,15.28,44.19,4.43,25.78,10,57.85,35.92,83.81l145.15,145a34.15,34.15,0,0,0,57.62-17.5,34.84,34.84,0,0,0,38.91-6.64,33.89,33.89,0,0,0,9.36-17.51,34.13,34.13,0,0,0,38.92-54.9l-3.24-3.24A34.12,34.12,0,0,0,406.93,344Z"/><path class="cls-1" d="M159.63,70.77l-51.2-51.2A8.53,8.53,0,0,0,96.37,31.63L141.54,76.8l-139,139A8.53,8.53,0,0,0,14.57,227.9L159.63,82.84A8.52,8.52,0,0,0,159.63,70.77Z"/><path class="cls-1" d="M209.88,493.36c-4.75,2.49-12.87,2.79-20.18-4.51s-7.26-15.83-4.88-19.53a8.53,8.53,0,0,0-13.22-10.64,17.07,17.07,0,0,1-24.14-24.14,8.53,8.53,0,1,0-12.07-12.07l-6,6a17.06,17.06,0,0,1-24.13-24.13l6-6A8.54,8.54,0,0,0,101,384.91c-4.64,2.68-12.81,2.37-19.86-4.67-7.49-7.49-7.45-15.8-5-19.3a8.53,8.53,0,1,0-14-9.69c-6.91,10-6.72,27.32,7,41.05a38.06,38.06,0,0,0,17.1,10.18,34.15,34.15,0,0,0,39.41,47.08A34.1,34.1,0,0,0,166.68,480a37.57,37.57,0,0,0,10.95,20.94c7.89,7.88,17.11,11,25.52,11a31.84,31.84,0,0,0,14.65-3.49,8.53,8.53,0,0,0-7.92-15.11Z"/></g></g></svg>