<svg xmlns="http://www.w3.org/2000/svg" viewBox="0 0 512 496.82"><defs><style>.cls-1{fill:#3e4452;}</style></defs><title>i-7</title><g id="Capa_2" data-name="Capa 2"><g id="Capa_1-2" data-name="Capa 1"><g id="Layer_1" data-name="Layer 1"><path class="cls-1" d="M483.38,257.74H483V106.37A11.41,11.41,0,0,0,471.6,95H411.55L366.67,6.24a11.41,11.41,0,0,0-15.33-5L166,95H46.19A46,46,0,0,0,0,139.35V450.63a46.24,46.24,0,0,0,46.19,46.19H471.6A11.42,11.42,0,0,0,483,485.41V397.56h.37A28.65,28.65,0,0,0,512,369V286.36A28.65,28.65,0,0,0,483.38,257.74Zm-23.18-140V162H445.45l-22.37-44.2Zm-286.37-1.23h0l177.63-89.8,42.89,84.8h0L419.89,162H397.78a9.21,9.21,0,0,0-.5-1.16l-29.35-58a11.4,11.4,0,0,0-12.33-6.06l-3.49.67a33,33,0,0,1-34.23-15.11l-2.28-3.71a11.38,11.38,0,0,0-14.87-4.21L127.49,162H84ZM372.31,162H178L302,99.33a56.09,56.09,0,0,0,49.38,21.22ZM46.19,117.78h74.68L37.08,160.16a23.62,23.62,0,0,1-13.33-15l-.06-.19c-.12-.44-.23-.89-.33-1.34s-.15-.78-.22-1.18-.1-.62-.14-.94c-.06-.55-.11-1.1-.14-1.66A23.27,23.27,0,0,1,46.19,117.78ZM460.2,474H46.2A23.42,23.42,0,0,1,22.82,450.6v-5.31H371.3a11.41,11.41,0,0,0,.68-22.81H22.81v-244a45.72,45.72,0,0,0,15,5.51h.67c.68.11,1.35.21,2,.29l.4.05h0l1,.09c.47,0,.93.1,1.41.12h.35c.89,0,1.73.07,2.55.07h414V210H108.67a11.41,11.41,0,0,0-.68,22.81H460.2v25h-165a11.39,11.39,0,0,0-11.41,11.39h0v117a11.42,11.42,0,0,0,11.41,11.4h165Zm23.18-99.26H306.62v-94.2H483.38a5.81,5.81,0,0,1,5.81,5.81V369h0a5.81,5.81,0,0,1-5.81,5.77Z"/><path class="cls-1" d="M363.28,284.59a43.06,43.06,0,1,0,43.06,43.06h0A43.11,43.11,0,0,0,363.28,284.59Zm0,63.31a20.25,20.25,0,1,1,20.24-20.26h0a20.27,20.27,0,0,1-20.24,20.25Z"/><path class="cls-1" d="M417.16,431.69a11.16,11.16,0,0,0-.65-2.13,10.9,10.9,0,0,0-1.05-2,11.71,11.71,0,0,0-1.41-1.73,11.47,11.47,0,0,0-10.3-3.11,9.36,9.36,0,0,0-2.13.65,10.68,10.68,0,0,0-2,1,11.67,11.67,0,0,0-1.74,1.41,10.25,10.25,0,0,0-1.41,1.73,10.9,10.9,0,0,0-1.05,2,11.38,11.38,0,0,0-.65,6.59,12.18,12.18,0,0,0,.65,2.13,10.9,10.9,0,0,0,1.05,2,11.67,11.67,0,0,0,1.41,1.74,14,14,0,0,0,1.74,1.42,12.28,12.28,0,0,0,2,1.05,11.36,11.36,0,0,0,8.72,0,12.28,12.28,0,0,0,2-1.05,13.15,13.15,0,0,0,1.74-1.42,11.67,11.67,0,0,0,1.41-1.74,10.9,10.9,0,0,0,1.05-2,12.18,12.18,0,0,0,.65-2.13,11.28,11.28,0,0,0,.23-2.24A10.55,10.55,0,0,0,417.16,431.69Z"/><path class="cls-1" d="M85.18,219.16a11.92,11.92,0,0,0-.65-2.13,12,12,0,0,0-1-2,11.84,11.84,0,0,0-1.43-1.73,9.36,9.36,0,0,0-1.73-1.41,10.32,10.32,0,0,0-2-1,10.68,10.68,0,0,0-2.13-.65,11.16,11.16,0,0,0-4.46,0,9.89,9.89,0,0,0-2.13.65,11.4,11.4,0,0,0-3.74,2.46,11.46,11.46,0,0,0-2.46,12.43,10.9,10.9,0,0,0,1,2,11.71,11.71,0,0,0,1.41,1.73,11.35,11.35,0,0,0,1.74,1.42,10.9,10.9,0,0,0,2,1.05,11.19,11.19,0,0,0,6.59.65,12.18,12.18,0,0,0,2.13-.65,11.38,11.38,0,0,0,3.7-2.47,11.25,11.25,0,0,0,2.48-3.7,12.18,12.18,0,0,0,.65-2.13,12.05,12.05,0,0,0,.21-2.24A11.88,11.88,0,0,0,85.18,219.16Z"/></g></g></g></svg>