<svg xmlns="http://www.w3.org/2000/svg" viewBox="0 0 480 480"><defs><style>.cls-1{fill:#ff385c;}</style></defs><title>icon-14</title><g id="Capa_2" data-name="Capa 2"><g id="Capa_1-2" data-name="Capa 1"><path class="cls-1" d="M440,0H40A40.05,40.05,0,0,0,0,40V440a40.05,40.05,0,0,0,40,40H440a40.05,40.05,0,0,0,40-40V40A40.05,40.05,0,0,0,440,0ZM40,16H440a24,24,0,0,1,24,24V64H16V40A24,24,0,0,1,40,16ZM440,464H40a24,24,0,0,1-24-24V80H464V440A24,24,0,0,1,440,464Z"/><path class="cls-1" d="M48,32H64V48H48Z"/><path class="cls-1" d="M80,32H96V48H80Z"/><path class="cls-1" d="M112,32h16V48H112Z"/><path class="cls-1" d="M104,384a8,8,0,0,0,5.66-2.34C114.81,376.5,160,330.33,160,296a56,56,0,0,0-112,0c0,34.33,45.19,80.5,50.34,85.66A8,8,0,0,0,104,384Zm0-128a40.05,40.05,0,0,1,40,40c0,20.53-25.18,52.26-40,68.41C89.18,348.26,64,316.53,64,296A40.05,40.05,0,0,1,104,256Z"/><path class="cls-1" d="M128,296a24,24,0,1,0-24,24A24,24,0,0,0,128,296Zm-32,0a8,8,0,1,1,8,8A8,8,0,0,1,96,296Z"/><path class="cls-1" d="M376,112a56.07,56.07,0,0,0-56,56c0,34.33,45.19,80.5,50.34,85.66a8,8,0,0,0,11.32,0C386.81,248.5,432,202.33,432,168A56.07,56.07,0,0,0,376,112Zm0,124.41c-14.82-16.15-40-47.88-40-68.41a40,40,0,0,1,80,0C416,188.53,390.82,220.26,376,236.41Z"/><path class="cls-1" d="M376,144a24,24,0,1,0,24,24A24,24,0,0,0,376,144Zm0,32a8,8,0,1,1,8-8A8,8,0,0,1,376,176Z"/><path class="cls-1" d="M152,224h44.69l29.65,29.66A8,8,0,0,0,240,248V224h8a24,24,0,0,0,24-24V136a24,24,0,0,0-24-24H152a24,24,0,0,0-24,24v64A24,24,0,0,0,152,224Zm-8-88a8,8,0,0,1,8-8h96a8,8,0,0,1,8,8v64a8,8,0,0,1-8,8H232a8,8,0,0,0-8,8v12.69l-18.34-18.35A8,8,0,0,0,200,208H152a8,8,0,0,1-8-8Z"/><path class="cls-1" d="M192,160h16v16H192Z"/><path class="cls-1" d="M224,160h16v16H224Z"/><path class="cls-1" d="M160,160h16v16H160Z"/><path class="cls-1" d="M368,296H280a8,8,0,0,0-8,8V416H112V400H96v24a8,8,0,0,0,8,8H280a8,8,0,0,0,8-8V312h88a8,8,0,0,0,8-8V280H368Z"/><path class="cls-1" d="M304,416h16v16H304Z"/><path class="cls-1" d="M304,384h16v16H304Z"/><path class="cls-1" d="M304,352h16v16H304Z"/><path class="cls-1" d="M240,384h16v16H240Z"/><path class="cls-1" d="M240,352h16v16H240Z"/><path class="cls-1" d="M240,320h16v16H240Z"/></g></g></svg>