<svg xmlns="http://www.w3.org/2000/svg" viewBox="0 0 512.27 511.77"><defs><style>.cls-1{fill:#8731e8;}</style></defs><title>icon-13</title><g id="Capa_2" data-name="Capa 2"><g id="Capa_1-2" data-name="Capa 1"><g id="Capa_1-2-2" data-name="Capa 1-2"><g id="Layer_1" data-name="Layer 1"><path class="cls-1" d="M136.7,235.24a16.89,16.89,0,0,0,5,12.06l6,6a42.69,42.69,0,0,0,60.34,0l42.54-42.49a93,93,0,0,0,60,21.72h0A93.51,93.51,0,0,0,377,205,8.53,8.53,0,1,0,365,192.89a76.5,76.5,0,0,1-54.38,22.57h0A76.27,76.27,0,0,1,256.29,193a8.54,8.54,0,0,0-12.07,0l-48.28,48.27c-9.66,9.67-26.53,9.67-36.2,0l-6-6,102.61-102.6c9.57-9.57,18.65-9.57,30.17-9.57,12.32,0,27.67,0,42.24-14.56l24.13-24.14a8.53,8.53,0,1,0-12.07-12.07h0L316.69,96.46C307.12,106,298,106,286.51,106c-12.32,0-27.66,0-42.23,14.56L141.71,223.16A17,17,0,0,0,136.7,235.24Z"/><path class="cls-1" d="M77.07,93.69A17.07,17.07,0,1,0,60,76.61h0A17.09,17.09,0,0,0,77.07,93.69Z"/><path class="cls-1" d="M159.8,120.59l24.14,24.14A8.53,8.53,0,1,0,196,132.66l-24.13-24.13a8.53,8.53,0,0,0-12.07,12.06Z"/><path class="cls-1" d="M435.47,59.55a17.07,17.07,0,1,0-17.06-17.08h0A17.09,17.09,0,0,0,435.47,59.55Z"/><path class="cls-1" d="M455,181.52c-13.87,13.87-18.63,36.46-23.23,58.3-4.08,19.39-8.3,39.45-18.58,49.73l-12.07,12.06a8.56,8.56,0,0,0,12.13,12.07l12-12.07c13.86-13.86,18.61-36.43,23.21-58.27,4.09-19.41,8.32-39.47,18.59-49.75A8.53,8.53,0,1,0,455,181.52h0Z"/><path class="cls-1" d="M509.77,181.52l-139-139,28.1-28.1a8.56,8.56,0,0,0-12.1-12.1L352.64,36.45a8.51,8.51,0,0,0,0,12h0L497.71,193.59a8.53,8.53,0,1,0,12.06-12.07Z"/><path class="cls-1" d="M316.69,253.34a8.53,8.53,0,1,0-12.07,12.07l90.51,90.51A17.07,17.07,0,0,1,371,380.06l-90.51-90.51a8.53,8.53,0,0,0-12.07,12.06h0L383.06,416.26a17.07,17.07,0,0,1-24.14,24.14L250.29,331.81a8.53,8.53,0,1,0-13,11,7.87,7.87,0,0,0,1,1l96.54,96.54a17.1,17.1,0,0,1,0,24.14,17.44,17.44,0,0,1-24.13,0l-12.08-12.06h0L220.17,374a8.53,8.53,0,0,0-12.06,12.06l78.43,78.44a17.06,17.06,0,0,1-24.13,24.13h0l-145.12-145c-22.13-22.13-26.93-50-31.17-74.65-3.57-20.71-6.94-40.26-20-53.35A8.55,8.55,0,0,0,54,227.72h0c9.26,9.26,12,25.45,15.28,44.19,4.43,25.78,10,57.85,35.92,83.81l145.1,145a34.15,34.15,0,0,0,57.62-17.5,34.84,34.84,0,0,0,38.91-6.64,33.93,33.93,0,0,0,9.36-17.51,34.13,34.13,0,0,0,38.92-54.9l-3.24-3.24a34.12,34.12,0,0,0,15.34-57.12Z"/><path class="cls-1" d="M159.9,70.59l-51.2-51.2A8.53,8.53,0,0,0,96.64,31.45l45.17,45.17-139,139a8.54,8.54,0,0,0,11.44,12.67c.19-.18.38-.37.56-.57h0L159.9,82.66a8.53,8.53,0,0,0,0-12Z"/><path class="cls-1" d="M210.15,493.18c-4.75,2.49-12.87,2.79-20.18-4.51s-7.26-15.83-4.88-19.53a8.53,8.53,0,0,0-13.22-10.64,17.07,17.07,0,0,1-24.14-24.14,8.53,8.53,0,0,0-12.07-12.07h0l-6,6a17.06,17.06,0,0,1-24.13-24.13h0l6-6a8.54,8.54,0,0,0-10.24-13.43c-4.64,2.68-12.81,2.37-19.86-4.67-7.49-7.49-7.45-15.8-5-19.3A8.53,8.53,0,0,0,63,350.19a8.64,8.64,0,0,0-.61.88c-6.91,10-6.72,27.32,7,41.05a37.94,37.94,0,0,0,17.1,10.18,34.15,34.15,0,0,0,39.41,47.08,34.12,34.12,0,0,0,41,30.44,37.59,37.59,0,0,0,11,20.94c7.89,7.88,17.11,11,25.52,11a31.87,31.87,0,0,0,14.65-3.49,8.53,8.53,0,0,0-7.92-15.11Z"/></g></g></g></g></svg>